<?xml version="1.0" standalone="no"?>
<!DOCTYPE svg PUBLIC "-//W3C//DTD SVG 20010904//EN"
 "http://www.w3.org/TR/2001/REC-SVG-20010904/DTD/svg10.dtd">
<svg version="1.0" xmlns="http://www.w3.org/2000/svg"
 width="1080.000000pt" height="1080.000000pt" viewBox="0 0 1080.000000 1080.000000"
 preserveAspectRatio="xMidYMid meet">
<metadata>
Created by potrace 1.16, written by Peter Selinger 2001-2019
</metadata>
<g transform="translate(0.000000,1080.000000) scale(0.100000,-0.100000)"
fill="#000000" stroke="none">
<path d="M5425 7748 c-146 -14 -380 -65 -525 -114 -250 -84 -541 -244 -756
-418 -92 -74 -243 -230 -340 -350 -151 -187 -297 -445 -379 -671 -139 -378
-178 -814 -109 -1225 92 -547 369 -1033 789 -1384 134 -112 209 -165 339 -240
542 -313 1226 -391 1845 -211 414 120 798 357 1075 664 38 42 77 90 87 106 41
65 10 178 -57 210 -46 21 -122 19 -162 -5 -18 -11 -75 -65 -128 -119 -615
-641 -1568 -819 -2359 -440 -125 59 -242 130 -346 210 -273 207 -442 414 -594
724 -147 300 -206 556 -207 895 0 657 300 1247 847 1662 284 215 644 351 1048
395 276 29 541 -1 817 -93 138 -47 351 -150 463 -226 109 -73 213 -156 230
-182 31 -47 42 -108 28 -159 -40 -141 -201 -203 -313 -119 -239 179 -449 278
-708 333 -142 30 -432 33 -595 6 -515 -87 -957 -421 -1190 -902 -159 -329
-203 -700 -124 -1063 131 -604 616 -1089 1212 -1212 542 -111 1092 49 1487
433 104 101 163 186 191 276 97 312 -76 623 -379 682 -87 17 -211 6 -289 -24
-83 -34 -135 -71 -223 -162 -126 -131 -227 -184 -383 -205 -168 -23 -320 28
-449 149 -113 106 -167 212 -189 367 -18 130 20 268 105 388 58 82 121 138
197 176 205 104 404 89 603 -45 46 -31 99 -58 119 -62 48 -7 97 11 138 53 31
33 34 40 34 99 0 49 -5 70 -21 92 -54 72 -239 177 -379 214 -120 31 -286 36
-405 11 -222 -46 -405 -158 -531 -326 -69 -91 -88 -126 -124 -227 -73 -209
-72 -418 4 -641 85 -251 322 -464 601 -540 120 -33 339 -33 453 0 181 52 299
121 427 252 127 130 185 152 283 107 75 -34 110 -86 115 -172 6 -87 -25 -142
-142 -252 -355 -333 -853 -447 -1306 -297 -447 148 -779 539 -855 1004 -19
122 -19 323 0 436 109 626 657 1094 1283 1095 300 0 528 -73 767 -247 159
-115 238 -146 378 -146 106 0 170 13 242 48 175 88 272 237 282 434 10 179
-39 304 -160 415 -318 291 -805 499 -1276 545 -121 12 -359 11 -486 -2z"/>
</g>
</svg>
